<?xml version="1.0" standalone="no"?>
<!DOCTYPE svg PUBLIC "-//W3C//DTD SVG 1.1//EN" "http://www.w3.org/Graphics/SVG/1.1/DTD/svg11.dtd" >
<svg xmlns="http://www.w3.org/2000/svg" xmlns:xlink="http://www.w3.org/1999/xlink" version="1.1">
<metadata></metadata>
<defs>
<font id="skolasansregular" horiz-adv-x="1265" >
<font-face units-per-em="2048" ascent="1536" descent="-512" />
<missing-glyph horiz-adv-x="575" />
<glyph unicode="&#xfb01;" horiz-adv-x="1296" d="M63 924v139h156v174q0 187 104 289t281 102q225 0 459 -102l-47 -133q-217 82 -402 82q-106 0 -162.5 -64t-56.5 -178v-170h717v-1063h-176v924h-541v-924h-176v924h-156z" />
<glyph unicode="&#xfb02;" horiz-adv-x="1378" d="M63 924v139h156v174q0 187 104 289t281 102q122 0 260 -35t250 -90v-1171q0 -108 38 -150.5t128 -42.5l-27 -143q-33 -10 -63 -10q-119 0 -186.5 88.5t-67.5 255.5v1087q-180 58 -322 58q-106 0 -162.5 -64t-56.5 -178v-170h307v-139h-307v-924h-176v924h-156z" />
<glyph horiz-adv-x="0" />
<glyph horiz-adv-x="0" />
<glyph horiz-adv-x="682" />
<glyph unicode="&#xd;" horiz-adv-x="409" />
<glyph unicode=" "  horiz-adv-x="575" />
<glyph unicode="&#x09;" horiz-adv-x="575" />
<glyph unicode="&#xa0;" horiz-adv-x="575" />
<glyph unicode="!" horiz-adv-x="751" d="M242 121q0 57 38.5 96t94.5 39q57 0 96 -39t39 -96q0 -56 -39 -94.5t-96 -38.5q-55 0 -94 39t-39 94zM281 1532h192l-31 -1083h-133z" />
<glyph unicode="&#x22;" horiz-adv-x="806" d="M164 1016v516h158v-516h-158zM485 1016v516h158v-516h-158z" />
<glyph unicode="#" horiz-adv-x="1185" d="M82 471v123h217l47 338h-201v123h217l66 477h131l-65 -477h276l66 477h131l-68 -477h205v-123h-219l-47 -338h202v-123h-219l-65 -471h-129l63 471h-276l-64 -471h-131l66 471h-203zM430 594h277l47 338h-277z" />
<glyph unicode="$" d="M139 164l84 145q189 -151 404 -151q146 0 225.5 65.5t79.5 184.5q0 60 -26 107t-70 78.5t-101 57t-120 48.5t-126 47.5t-120 59.5t-101 79t-70 111.5t-26 152.5q0 148 103 252.5t286 124.5v215h148v-215q104 -9 196 -48t191 -110l-82 -147q-193 153 -381 153 q-133 0 -208 -62.5t-75 -156.5q0 -62 26.5 -110.5t71 -80.5t102.5 -57.5t122 -48t128 -46.5t122 -58t102.5 -77t71 -109.5t26.5 -149.5q0 -176 -110.5 -283.5t-302.5 -128.5v-215h-148v213q-228 15 -422 160z" />
<glyph unicode="%" horiz-adv-x="1845" d="M96 1186q0 148 105 253t254 105q146 0 251 -105t105 -253q0 -149 -104.5 -254t-251.5 -105q-149 0 -254 105t-105 254zM227 1186q0 -94 66.5 -161t161.5 -67q92 0 158.5 67t66.5 161t-66.5 160.5t-158.5 66.5q-95 0 -161.5 -66.5t-66.5 -160.5zM344 0l1010 1544l137 -12 l-1010 -1544zM1034 344q0 149 104.5 255t252.5 106t253 -106t105 -255q0 -148 -105 -252t-253 -104t-252.5 104t-104.5 252zM1165 344q0 -94 66 -159.5t160 -65.5t160.5 65.5t66.5 159.5q0 95 -66.5 162t-160.5 67t-160 -67t-66 -162z" />
<glyph unicode="&#x26;" horiz-adv-x="1513" d="M117 397q0 67 20.5 128.5t51 107t79 90.5t92.5 76t103 67q-41 42 -68.5 74.5t-59.5 78t-48.5 93.5t-16.5 96q0 148 106 242t267 94q174 0 273.5 -93.5t99.5 -238.5q0 -190 -322 -376l346 -369l306 391l124 -90l-323 -418l330 -350l-195 -12l-235 248 q-98 -115 -215.5 -185.5t-243.5 -70.5q-202 0 -336.5 113.5t-134.5 303.5zM283 399q0 -122 88.5 -196t220.5 -74q188 0 354 217l-387 412q-13 -10 -45.5 -33t-49 -34.5t-45 -35t-44.5 -40.5t-36 -43.5t-30.5 -51t-18 -56t-7.5 -65.5zM432 1204q0 -25 9.5 -53t18.5 -47 t34 -50t33.5 -41t40.5 -43.5t34 -35.5q43 23 83 49t82.5 61.5t68.5 78t26 83.5q0 83 -57.5 139t-161.5 56q-94 0 -152.5 -56t-58.5 -141z" />
<glyph unicode="'" horiz-adv-x="485" d="M164 1016v516h158v-516h-158z" />
<glyph unicode="(" horiz-adv-x="540" d="M111 668q0 170 23.5 324t65.5 277t82 209.5t91 172.5l112 -62q-227 -405 -227 -921q0 -159 20 -300.5t56.5 -253.5t71 -189.5t79.5 -157.5l-112 -64q-52 87 -91 169t-81.5 203t-66 272.5t-23.5 320.5z" />
<glyph unicode=")" horiz-adv-x="540" d="M55 -233q45 80 79.5 157.5t71.5 189.5t57 253.5t20 300.5q0 514 -228 921l113 62q51 -86 91 -172.5t82 -209.5t65.5 -277t23.5 -324q0 -169 -23.5 -320.5t-66 -272.5t-81.5 -203t-91 -169z" />
<glyph unicode="*" horiz-adv-x="944" d="M82 1210l41 127l305 -123l-22 330h133l-23 -330l307 123l39 -125l-317 -82l209 -251l-107 -78l-174 278l-176 -278l-107 78l209 254z" />
<glyph unicode="+" horiz-adv-x="1337" d="M135 618v148h461v461h145v-461h461v-148h-461v-460h-145v460h-461z" />
<glyph unicode="," horiz-adv-x="567" d="M127 125q0 58 39.5 98.5t97.5 40.5q57 0 97 -41t40 -98q0 -79 -57 -218.5t-111 -225.5l-100 36l119 273q-55 0 -90 41.5t-35 93.5z" />
<glyph unicode="-" horiz-adv-x="714" d="M82 524v148h551v-148h-551z" />
<glyph unicode="." horiz-adv-x="606" d="M166 125q0 57 40 98t97 41t97 -41t40 -98t-40 -97t-97 -40t-97 40t-40 97z" />
<glyph unicode="/" horiz-adv-x="862" d="M0 -418l711 2069h151l-708 -2069h-154z" />
<glyph unicode="0" d="M84 766q0 369 147.5 573.5t399.5 204.5q255 0 403 -204.5t148 -573.5t-148 -573.5t-403 -204.5q-252 0 -399.5 204.5t-147.5 573.5zM268 766q0 -292 99 -457.5t264 -165.5q168 0 267 165t99 458t-99 458t-267 165q-165 0 -264 -165.5t-99 -457.5z" />
<glyph unicode="1" d="M166 0v160h438v1175l-360 -182l-60 129l455 250h149v-1372h326v-160h-948z" />
<glyph unicode="2" d="M139 0v121q68 47 158 118.5t206 179t210 214t159.5 225.5t65.5 211q0 143 -93.5 229t-252.5 86q-167 0 -344 -118l-78 131q114 79 229 113t205 34q240 0 379 -129.5t139 -339.5q0 -96 -49.5 -206t-123 -205t-173 -194t-184 -169t-170.5 -133l2 -8h682v-160h-967z" />
<glyph unicode="3" d="M129 150l80 141q107 -73 199.5 -107t191.5 -34q164 0 258 90.5t94 228.5q0 25 -7 56t-29.5 72.5t-57 74.5t-96.5 56.5t-141 23.5h-185v143h182q68 0 121.5 21.5t83 52t49 68t25.5 65t6 47.5q0 106 -90.5 169.5t-224.5 63.5q-177 0 -355 -116l-75 131q216 147 448 147 q133 0 241.5 -44.5t174 -130.5t65.5 -198q0 -234 -247 -337v-9q80 -20 140 -62t93 -94.5t48.5 -105.5t15.5 -106q0 -202 -142 -335.5t-389 -133.5q-235 0 -477 162z" />
<glyph unicode="4" d="M74 383l852 1161h108v-1067h162v-158h-162v-319h-178v319h-778zM332 483l2 -6h522v703l-8 2z" />
<glyph unicode="5" d="M113 150l80 143q112 -76 199.5 -109.5t193.5 -33.5q161 0 271 95.5t110 235.5q0 163 -104.5 249.5t-278.5 86.5h-338l59 715h744v-160h-588l-35 -395h213q229 0 370.5 -127t141.5 -363q0 -138 -76 -253t-204 -180.5t-279 -65.5q-132 0 -239 37t-240 125z" />
<glyph unicode="6" d="M133 483q0 96 26.5 194.5t72.5 193t123 208t161 219.5t205 246l213 -12q-85 -94 -152 -173t-169 -214.5t-189 -274.5l6 -6q43 40 115.5 68.5t134.5 28.5q144 0 255 -67.5t168.5 -178t57.5 -244.5q0 -132 -66 -242.5t-184 -175.5t-262 -65q-113 0 -210 39t-163.5 106 t-104.5 158t-38 192zM315 471q0 -144 97.5 -237t236.5 -93q100 0 177 48.5t115 122.5t38 159q0 139 -92.5 237.5t-237.5 98.5q-149 0 -241.5 -96.5t-92.5 -239.5z" />
<glyph unicode="7" d="M119 1372v160h1026v-53l-633 -1491l-195 12l590 1372h-788z" />
<glyph unicode="8" d="M109 442q0 55 14.5 109.5t46 108.5t88.5 97.5t133 65.5v8q-64 28 -109.5 69t-68 87.5t-32 89.5t-9.5 88q0 172 133 275.5t328 103.5q197 0 329 -103.5t132 -275.5q0 -45 -9.5 -88t-32.5 -89.5t-69 -87.5t-111 -69l2 -8q76 -22 133 -65.5t88.5 -97.5t46.5 -108.5 t15 -109.5q0 -95 -35 -177.5t-100.5 -144t-166.5 -97t-226 -35.5q-123 0 -222.5 35.5t-164 97t-99 144t-34.5 177.5zM293 463q0 -152 98 -235t242 -83t242 82.5t98 235.5q0 119 -95 208t-208 89h-76q-113 0 -207 -89t-94 -208zM356 1141q0 -112 70.5 -183t171.5 -71h68 q103 0 173 71t70 183q0 62 -26 110.5t-67 77t-88 43t-95 14.5t-95 -14.5t-88.5 -43t-67.5 -77.5t-26 -110z" />
<glyph unicode="9" d="M119 1061q0 132 66 242.5t184 175.5t262 65q113 0 210 -39t163.5 -106t104.5 -158t38 -192q0 -96 -26.5 -194.5t-72.5 -193t-123 -208t-161 -219.5t-205 -246l-213 12q85 94 152 173t169 214.5t189 274.5l-6 6q-43 -40 -115.5 -68.5t-134.5 -28.5q-144 0 -255 67.5 t-168.5 178t-57.5 244.5zM299 1061q0 -139 93 -237.5t239 -98.5q149 0 240.5 96.5t91.5 239.5q0 144 -96.5 237t-235.5 93q-149 0 -240.5 -99.5t-91.5 -230.5z" />
<glyph unicode=":" horiz-adv-x="606" d="M166 125q0 57 40 98t97 41t97 -41t40 -98t-40 -97t-97 -40t-97 40t-40 97zM166 936q0 57 40 98t97 41t97 -41t40 -98t-40 -97t-97 -40t-97 40t-40 97z" />
<glyph unicode=";" horiz-adv-x="567" d="M127 125q0 57 40 98t97 41t97 -41t40 -98q0 -79 -57 -218.5t-111 -225.5l-100 36l121 273q-56 0 -91.5 41t-35.5 94zM127 936q0 57 40 98t97 41t97 -41t40 -98t-40 -97t-97 -40t-97 40t-40 97z" />
<glyph unicode="&#x3c;" horiz-adv-x="1337" d="M154 614v148l1030 457v-156l-832 -371v-8l832 -371v-155z" />
<glyph unicode="=" horiz-adv-x="1337" d="M135 451v145h1067v-145h-1067zM135 786v148h1067v-148h-1067z" />
<glyph unicode="&#x3e;" horiz-adv-x="1337" d="M154 158v155l831 371v8l-831 371v156l1030 -457v-148z" />
<glyph unicode="?" horiz-adv-x="1019" d="M111 1395q96 80 186.5 114.5t191.5 34.5q86 0 163 -22.5t140 -67t100.5 -119.5t37.5 -172q0 -282 -375 -483l-16 -231h-121l-25 296q70 35 130 75t115 90.5t86.5 110t31.5 120.5q0 124 -80.5 188t-198.5 64q-72 0 -138.5 -28t-143.5 -95zM344 121q0 57 38.5 96t94.5 39 q57 0 96 -39t39 -96q0 -56 -39 -94.5t-96 -38.5q-55 0 -94 39t-39 94z" />
<glyph unicode="@" horiz-adv-x="2195" d="M193 537q0 181 46 330t128 253t196.5 175.5t248.5 105t286 33.5q154 0 286.5 -29.5t248 -97t196.5 -169.5t127.5 -255t46.5 -346q0 -122 -33 -221t-88 -160.5t-124 -94t-144 -32.5q-54 0 -106.5 22.5t-96 73.5t-55.5 121h-13q-45 -97 -128 -157t-191 -60 q-181 0 -297.5 138.5t-116.5 373.5q0 233 119.5 362t314.5 129q164 0 291 -112h129v-566q0 -52 16 -90.5t41 -57.5t50 -27.5t49 -8.5q99 0 170.5 97t71.5 270q0 163 -39.5 292t-107.5 215t-166 142.5t-209 81t-242 24.5q-161 0 -297.5 -45.5t-242 -136t-165 -237 t-59.5 -336.5q0 -192 54.5 -338.5t156 -239t240.5 -138.5t313 -46q216 0 385 59l39 -135q-202 -66 -424 -66q-207 0 -371.5 54.5t-284.5 164t-184.5 283t-64.5 402.5zM770 541q0 -171 72.5 -268t181.5 -97q47 0 96 22.5t90.5 62t68 100t26.5 128.5v273q-51 58 -120.5 90.5 t-140.5 32.5q-49 0 -95 -18t-87.5 -56.5t-66.5 -108t-25 -161.5z" />
<glyph unicode="A" horiz-adv-x="1470" d="M23 0l667 1532h90l668 -1532l-186 -12l-154 354h-743l-152 -354zM422 494h629l-312 733h-8z" />
<glyph unicode="B" horiz-adv-x="1488" d="M195 0v1532h610q225 0 350 -111t125 -284q0 -100 -57.5 -191.5t-175.5 -142.5v-8q129 -32 216 -132.5t87 -230.5q0 -196 -143 -314t-402 -118h-610zM379 160h420q99 0 173 24t114.5 66t59.5 90.5t19 105.5q0 107 -100 190t-225 83h-461v-559zM379 870h461q96 0 176 73.5 t80 168.5q0 117 -79 188.5t-216 71.5h-422v-502z" />
<glyph unicode="C" horiz-adv-x="1509" d="M131 766q0 163 47 303.5t136.5 246.5t230.5 167t317 61q143 0 267.5 -39t252.5 -114l-79 -152q-215 137 -441 137q-174 0 -299.5 -83t-186.5 -219t-61 -308q0 -127 35.5 -237t103 -193.5t172.5 -131.5t236 -48q226 0 441 137l79 -152q-128 -75 -252.5 -114t-267.5 -39 q-176 0 -317 61t-230.5 167t-136.5 246.5t-47 303.5z" />
<glyph unicode="D" horiz-adv-x="1546" d="M172 0v1532h514q175 0 314.5 -59.5t229.5 -163.5t137.5 -242.5t47.5 -300.5t-47.5 -300.5t-137.5 -242.5t-229.5 -163.5t-314.5 -59.5h-514zM356 160h318q133 0 239.5 45.5t175.5 127t105.5 192t36.5 241.5t-36.5 241.5t-105.5 192t-175.5 127t-239.5 45.5h-318v-1212z " />
<glyph unicode="E" horiz-adv-x="1355" d="M195 0v1532h1022v-160h-838v-502h751v-151h-751v-559h838v-160h-1022z" />
<glyph unicode="F" horiz-adv-x="1286" d="M195 0v1532h1003v-160h-819v-520h733v-152h-733v-700h-184z" />
<glyph unicode="G" horiz-adv-x="1581" d="M131 766q0 163 47 303.5t136.5 246.5t230.5 167t317 61q148 0 275.5 -39t257.5 -114l-80 -152q-221 137 -453 137q-174 0 -299.5 -83t-186.5 -219t-61 -308q0 -127 35.5 -237t103 -193.5t173.5 -131.5t237 -48q217 0 406 120v367h-385v158h557v-625q-284 -188 -578 -188 q-177 0 -318.5 61t-231 167.5t-136.5 246.5t-47 303z" />
<glyph unicode="H" horiz-adv-x="1611" d="M195 0v1532h184v-662h854v662h184v-1532h-184v719h-854v-719h-184z" />
<glyph unicode="I" horiz-adv-x="573" d="M195 0v1532h184v-1532h-184z" />
<glyph unicode="J" horiz-adv-x="1017" d="M55 78l82 151q110 -73 236 -73q135 0 210.5 83t75.5 261v1032h185v-1022q0 -270 -124.5 -396t-346.5 -126q-164 0 -318 90z" />
<glyph unicode="K" horiz-adv-x="1335" d="M195 0v1532h184v-696h192l461 708l203 -12l-520 -772l606 -760l-213 -12l-543 696h-186v-684h-184z" />
<glyph unicode="L" horiz-adv-x="1210" d="M195 0v1532h184v-1372h776v-160h-960z" />
<glyph unicode="M" horiz-adv-x="1820" d="M195 0v1532h92l622 -854l625 854h92v-1532h-184v1110l-8 2l-496 -666h-57l-494 666l-8 -2v-1110h-184z" />
<glyph unicode="N" horiz-adv-x="1611" d="M195 0v1532h73l957 -1157l8 2v1155h184v-1532h-82l-948 1143l-8 -2v-1141h-184z" />
<glyph unicode="O" horiz-adv-x="1740" d="M131 766q0 164 49.5 305.5t141.5 247t233 165.5t315 60q175 0 316 -60t232.5 -165.5t140.5 -247t49 -305.5t-49 -305.5t-140.5 -247t-232.5 -165.5t-316 -60q-174 0 -315 60t-233 165.5t-141.5 247t-49.5 305.5zM317 766q0 -126 36.5 -236.5t105 -194.5t174.5 -132.5 t237 -48.5t237 48.5t174.5 132.5t105 194.5t36.5 236.5t-36.5 236.5t-105 194.5t-174.5 132.5t-237 48.5t-237 -48.5t-174.5 -132.5t-105 -194.5t-36.5 -236.5z" />
<glyph unicode="P" horiz-adv-x="1411" d="M195 0v1532h565q143 0 264 -67t191.5 -184t70.5 -257q0 -138 -71 -254t-192 -183t-263 -67h-381v-520h-184zM379 678h369q146 0 250 101.5t104 244.5q0 147 -103 247.5t-251 100.5h-369v-694z" />
<glyph unicode="Q" horiz-adv-x="1740" d="M131 766q0 164 49.5 305.5t141.5 247t233 165.5t315 60q175 0 316 -60t232.5 -165.5t140.5 -247t49 -305.5q0 -321 -166.5 -519t-468.5 -239v-8q102 -53 563 -274l-68 -150q-47 23 -193.5 96t-198 99t-158.5 80.5t-192.5 101t-182.5 100.5q-412 234 -412 713zM317 766 q0 -124 29 -222t89 -173.5t140.5 -132.5t194.5 -109q140 0 251.5 33.5t185.5 91t123.5 139t71 174t21.5 199.5q0 94 -21.5 182.5t-66.5 166.5t-109 136.5t-155.5 92.5t-200.5 34q-131 0 -237 -48.5t-174.5 -132.5t-105 -194.5t-36.5 -236.5z" />
<glyph unicode="R" horiz-adv-x="1435" d="M172 0v1532h629q134 0 242 -53t173.5 -160t65.5 -252q0 -158 -101 -268.5t-261 -159.5l460 -639l-209 -12l-442 633h-373v-621h-184zM356 772h430q86 0 159.5 46.5t113 114t39.5 134.5q0 144 -90 224.5t-226 80.5h-426v-600z" />
<glyph unicode="S" horiz-adv-x="1331" d="M139 150l82 145q211 -150 445 -150q158 0 246.5 67.5t88.5 188.5q0 60 -28.5 107t-76.5 78t-110 56.5t-131 48t-137.5 47.5t-130.5 60.5t-110 80.5t-76.5 114t-28.5 156q0 173 129 284t373 111q137 0 253.5 -40t235.5 -122l-80 -147q-209 147 -415 147q-149 0 -230.5 -65 t-81.5 -162q0 -61 28.5 -109t76.5 -80t110 -58.5t131 -49.5t138 -48t131 -59.5t110 -78.5t76.5 -110.5t28.5 -149.5q0 -204 -138 -315t-389 -111q-281 0 -520 164z" />
<glyph unicode="T" horiz-adv-x="1314" d="M49 1372v160h1217v-160h-516v-1372h-185v1372h-516z" />
<glyph unicode="U" horiz-adv-x="1589" d="M172 659v873h184v-873q0 -229 115 -371.5t324 -142.5t323.5 142.5t114.5 371.5v873h184v-873q0 -147 -40 -269.5t-116.5 -212.5t-195.5 -140.5t-270 -50.5q-200 0 -342.5 88t-211.5 238t-69 347z" />
<glyph unicode="V" horiz-adv-x="1349" d="M14 1530l189 14l467 -1220h10l465 1220l188 -14l-610 -1530h-96z" />
<glyph unicode="W" horiz-adv-x="1974" d="M14 1530l189 14l368 -1182h9l383 1170h51l381 -1170h8l371 1182l186 -14l-514 -1530h-94l-361 1090h-8l-360 -1090h-95z" />
<glyph unicode="X" horiz-adv-x="1417" d="M49 0l555 811l-491 721l209 12l387 -598l387 598l207 -12l-490 -721l555 -811l-209 -12l-450 686l-451 -686z" />
<glyph unicode="Y" horiz-adv-x="1351" d="M23 1532l210 12l439 -794h8l436 794l213 -12l-561 -940v-592h-184v588z" />
<glyph unicode="Z" horiz-adv-x="1384" d="M119 0v45l848 1327h-822v160h1102v-49l-844 -1323h859v-160h-1143z" />
<glyph unicode="[" horiz-adv-x="628" d="M131 -297v1948h408v-142h-263v-1665h269v-141h-414z" />
<glyph unicode="\" horiz-adv-x="862" d="M0 1651h152l710 -2069h-153z" />
<glyph unicode="]" horiz-adv-x="628" d="M84 -156h268v1665h-262v142h408v-1948h-414v141z" />
<glyph unicode="^" horiz-adv-x="1439" d="M178 606l463 926h156l465 -926h-162l-381 772l-379 -772h-162z" />
<glyph unicode="_" horiz-adv-x="1024" d="M0 -152h1024v-106h-1024v106z" />
<glyph unicode="`" horiz-adv-x="503" d="M92 1505h219l201 -307h-152z" />
<glyph unicode="a" horiz-adv-x="1230" d="M111 326q0 38 7.5 74t35.5 82.5t73.5 80.5t131.5 58t200 24q66 0 153.5 -14t159.5 -41q0 173 -79.5 255.5t-219.5 82.5q-86 0 -157.5 -21.5t-171.5 -66.5l-64 129q217 106 406 106q213 0 339 -120.5t126 -336.5v-618h-158l-12 166l-9 2q-48 -66 -118 -108.5t-131 -57 t-121 -14.5q-177 0 -284 94t-107 244zM295 334q0 -91 68.5 -150t177.5 -59q38 0 78.5 9t86.5 33.5t82 62t60 101.5t24 144q-141 55 -294 55q-71 0 -125 -14t-83 -34.5t-47 -48.5t-23 -51t-5 -48z" />
<glyph unicode="b" horiz-adv-x="1323" d="M180 88v1540h176v-690l9 -2q152 139 331 139q224 0 360 -146t136 -399q0 -252 -137 -397t-359 -145q-218 0 -366 100h-150zM356 258q126 -111 330 -111q148 0 238 101.5t90 281.5q0 179 -91 282t-237 103q-192 0 -330 -161v-496z" />
<glyph unicode="c" horiz-adv-x="1173" d="M131 530q0 253 151 399t400 146q125 0 206.5 -25t180.5 -79l-74 -142q-58 32 -92.5 47.5t-95 30.5t-127.5 15q-166 0 -268.5 -104.5t-102.5 -287.5q0 -182 102.5 -285.5t268.5 -103.5q96 0 166 22.5t145 67.5l78 -139q-89 -54 -174.5 -79t-212.5 -25q-250 0 -400.5 144.5 t-150.5 397.5z" />
<glyph unicode="d" horiz-adv-x="1323" d="M131 530q0 253 136 399t360 146q181 0 331 -133l9 2v684h176v-1628h-158l-12 137l-8 2q-158 -151 -357 -151q-210 0 -343.5 145.5t-133.5 396.5zM309 530q0 -179 91 -281t237 -102q187 0 330 181v426q-72 79 -151 120t-179 41q-146 0 -237 -103t-91 -282z" />
<glyph unicode="e" horiz-adv-x="1232" d="M131 530q0 250 144 397.5t364 147.5q247 0 365 -144t118 -401l-10 -53h-801q4 -161 104.5 -251.5t256.5 -90.5q196 0 352 86l68 -129q-184 -104 -418 -104q-246 0 -394.5 144.5t-148.5 397.5zM315 610h631q0 145 -82.5 233.5t-226.5 88.5q-138 0 -228.5 -95t-93.5 -227z " />
<glyph unicode="f" horiz-adv-x="821" d="M63 924v139h156v217q0 164 94 256t236 92q89 0 161.5 -21t157.5 -63l-51 -131q-123 60 -237 60q-81 0 -133 -52.5t-52 -148.5v-209h307v-139h-307v-924h-176v924h-156z" />
<glyph unicode="g" horiz-adv-x="1263" d="M111 -111q0 66 34 132t101 120q-62 59 -62 146q0 100 97 172q-125 89 -125 258q0 167 103.5 262.5t324.5 95.5q72 0 130.5 -10.5t91 -23t81 -23t102.5 -10.5q78 0 174 55l51 -127q-105 -61 -227 -70q23 -67 23 -149q0 -166 -108.5 -252t-315.5 -86q-65 0 -183 24 q-28 -12 -46.5 -40.5t-18.5 -61.5q0 -34 25 -61.5t69 -30.5l322 -21q198 -13 288.5 -94t90.5 -205q0 -153 -128 -240t-395 -87q-139 0 -237.5 23.5t-154.5 68t-81.5 102.5t-25.5 133zM283 -98q0 -92 76 -141.5t251 -49.5q174 0 259 47.5t85 132.5q0 66 -53.5 105t-177.5 49 l-352 29q-38 -26 -63 -79t-25 -93zM328 713q0 -89 67.5 -141t188.5 -52q126 0 190 51.5t64 141.5q0 51 -13.5 101t-36.5 79l-34 12q-35 12 -49 15.5t-49.5 8.5t-73.5 5q-254 0 -254 -221z" />
<glyph unicode="h" horiz-adv-x="1302" d="M172 0v1628h178v-710l8 -3q86 83 182 121.5t179 38.5q46 0 89.5 -8.5t90.5 -27.5t85.5 -55t69.5 -86t48.5 -125t17.5 -167v-606h-178v612q0 71 -16.5 126.5t-42.5 88.5t-61.5 54.5t-69.5 29t-70 7.5q-79 0 -171 -44t-161 -145v-729h-178z" />
<glyph unicode="i" horiz-adv-x="604" d="M172 1421q0 52 38.5 89.5t92.5 37.5q53 0 90 -37t37 -90q0 -54 -37.5 -92.5t-89.5 -38.5q-54 0 -92.5 38.5t-38.5 92.5zM215 0v1063h176v-1063h-176z" />
<glyph unicode="j" horiz-adv-x="628" d="M-4 -293q112 0 178 55t66 172v1129h176v-1124q0 -175 -95.5 -276t-236.5 -101q-37 0 -64 8zM197 1421q0 52 38.5 89.5t92.5 37.5q52 0 89.5 -37t37.5 -90q0 -54 -37.5 -92.5t-89.5 -38.5q-54 0 -92.5 38.5t-38.5 92.5z" />
<glyph unicode="k" horiz-adv-x="1134" d="M172 0v1628h178v-1010h160l336 457l211 -12l-391 -502l454 -561l-213 -12l-393 512h-164v-500h-178z" />
<glyph unicode="l" horiz-adv-x="600" d="M158 330v1298h178v-1296q0 -108 38 -150.5t128 -42.5l-27 -143q-33 -10 -61 -10q-121 0 -188.5 88t-67.5 256z" />
<glyph unicode="m" horiz-adv-x="1990" d="M172 0v1063h160l12 -139l8 -2q76 79 163.5 116t162.5 37q49 0 95 -9.5t94 -31.5t89 -63.5t68 -98.5q63 77 139.5 125.5t133 63t110.5 14.5q46 0 89.5 -8.5t90.5 -27.5t85.5 -55t69.5 -86t48.5 -125t17.5 -167v-606h-178v612q0 71 -16.5 126.5t-42.5 88.5t-61.5 54.5 t-69.5 29t-70 7.5q-69 0 -149 -44t-142 -145v-729h-178v612q0 71 -16.5 126.5t-42.5 88.5t-61.5 54.5t-69.5 29t-70 7.5q-69 0 -149 -44t-142 -145v-729h-178z" />
<glyph unicode="n" horiz-adv-x="1302" d="M172 0v1063h160l12 -154l8 -2q85 88 183.5 128t183.5 40q46 0 89.5 -8.5t90.5 -27.5t85.5 -55t69.5 -86t48.5 -125t17.5 -167v-606h-178v612q0 71 -16.5 126.5t-42.5 88.5t-61.5 54.5t-69.5 29t-70 7.5q-79 0 -171 -44t-161 -145v-729h-178z" />
<glyph unicode="o" horiz-adv-x="1333" d="M131 530q0 254 147.5 399.5t389.5 145.5q240 0 387 -145.5t147 -399.5q0 -251 -147 -396.5t-387 -145.5q-241 0 -389 145.5t-148 396.5zM309 530q0 -181 98.5 -285t260.5 -104q160 0 258 104t98 285q0 182 -97.5 287t-258.5 105q-162 0 -260.5 -105t-98.5 -287z" />
<glyph unicode="p" horiz-adv-x="1316" d="M172 -426v1489h160l12 -148l8 -2q159 162 357 162q210 0 342.5 -146.5t132.5 -398.5q0 -253 -135.5 -397.5t-358.5 -144.5q-185 0 -332 137l-8 -2v-549h-178zM350 307q138 -160 328 -160q148 0 239 102t91 281q0 180 -91 282.5t-239 102.5q-195 0 -328 -184v-424z" />
<glyph unicode="q" horiz-adv-x="1316" d="M131 530q0 253 137 399t359 146q210 0 368 -102h148v-1399h-176v549l-9 2q-150 -137 -331 -137q-225 0 -360.5 144.5t-135.5 397.5zM309 530q0 -179 91 -281t237 -102q189 0 330 160v496q-130 112 -330 112q-146 0 -237 -103t-91 -282z" />
<glyph unicode="r" horiz-adv-x="854" d="M172 0v1063h160l12 -148l8 -2q79 85 173.5 123.5t174.5 38.5q70 0 134 -20l-46 -162q-52 18 -106 18q-79 0 -171 -43.5t-161 -144.5v-723h-178z" />
<glyph unicode="s" horiz-adv-x="980" d="M106 94l68 127q80 -42 147.5 -61t147.5 -19q101 0 169.5 42t68.5 118q0 41 -25.5 72.5t-67.5 49.5t-95.5 36t-109.5 32.5t-109.5 40t-95.5 56.5t-67.5 84t-25.5 121q0 121 97.5 201.5t260.5 80.5q107 0 189.5 -25t172.5 -75l-61 -133q-157 82 -293 82q-86 0 -142 -34.5 t-56 -94.5q0 -36 20.5 -63.5t55 -46t79.5 -34t94.5 -30.5t99 -31.5t94.5 -41.5t79.5 -56.5t55 -80t20.5 -108.5q0 -150 -113.5 -232.5t-286.5 -82.5q-108 0 -195 26t-176 80z" />
<glyph unicode="t" horiz-adv-x="937" d="M57 924v139h185l30 270h146v-270h340v-139h-340v-547q0 -53 13 -95t33.5 -66.5t47.5 -40.5t52.5 -22t51.5 -6q111 0 215 64l52 -135q-150 -88 -297 -88q-46 0 -90 9.5t-91.5 35.5t-82.5 67t-57.5 110.5t-22.5 158.5v555h-185z" />
<glyph unicode="u" horiz-adv-x="1302" d="M176 459v604h176v-610q0 -72 17 -128t43 -89t62 -54.5t70 -29t70 -7.5q48 0 101 15.5t118 60t113 113.5v729h176v-1063h-157l-13 156l-8 2q-85 -88 -183.5 -129t-182.5 -41q-56 0 -108 11.5t-107 44t-95.5 83.5t-66 136.5t-25.5 195.5z" />
<glyph unicode="v" horiz-adv-x="1099" d="M29 1063l190 12l326 -782h8l330 782l188 -12l-471 -1063h-100z" />
<glyph unicode="w" horiz-adv-x="1662" d="M29 1063l190 12l285 -772h8l289 760h61l287 -760h8l287 772l190 -12l-424 -1063h-100l-274 729h-9l-280 -729h-94z" />
<glyph unicode="x" horiz-adv-x="1148" d="M43 0l422 569l-365 494l207 12l268 -383l267 383l207 -12l-365 -494l422 -569l-207 -12l-324 461l-325 -461z" />
<glyph unicode="y" horiz-adv-x="1093" d="M14 1063l191 12l338 -796h8l340 796l188 -12l-682 -1501l-176 12l236 508z" />
<glyph unicode="z" horiz-adv-x="1073" d="M82 0v59l618 852h-581v152h858v-59l-612 -852h626v-152h-909z" />
<glyph unicode="{" horiz-adv-x="706" d="M61 608v125q92 25 127 99.5t35 201.5v283q0 155 89.5 244.5t244.5 89.5h66v-142h-93q-65 0 -113 -47.5t-48 -113.5v-379q0 -115 -49 -192t-105 -105q55 -28 104.5 -107t49.5 -194v-355q0 -75 50.5 -125.5t125.5 -50.5h78v-141h-66q-155 0 -244.5 90.5t-89.5 245.5v270 q0 127 -35 202.5t-127 100.5z" />
<glyph unicode="|" horiz-adv-x="522" d="M188 -315v1966h146v-1966h-146z" />
<glyph unicode="}" horiz-adv-x="706" d="M84 -160h78q76 0 126 50.5t50 125.5v355q0 115 49.5 194t104.5 107q-56 28 -105 105t-49 192v379q0 66 -48 113.5t-114 47.5h-92v142h66q155 0 244 -89.5t89 -244.5v-283q0 -127 35 -201.5t127 -99.5v-125q-92 -25 -127 -100.5t-35 -202.5v-270q0 -156 -89 -246t-244 -90 h-66v141z" />
<glyph unicode="~" horiz-adv-x="1337" d="M168 682l74 127q13 -8 51 -32.5t54 -32.5t47.5 -17.5t64.5 -9.5q57 0 127 24t143.5 48t138.5 24q57 0 106.5 -15t82 -33.5t110.5 -68.5l-73 -125q-14 9 -43 27.5t-44.5 27t-39.5 20t-47.5 16t-49.5 4.5q-44 0 -111 -24t-146 -48.5t-154 -24.5q-77 0 -130 22.5t-161 90.5z " />
<glyph unicode="&#xa1;" horiz-adv-x="751" d="M242 973q0 55 39 94t94 39q57 0 96 -38.5t39 -94.5q0 -57 -39 -97t-96 -40q-55 0 -94 40t-39 97zM281 -438l28 1083h133l31 -1083h-192z" />
<glyph unicode="&#xa2;" d="M164 766q0 232 128.5 375t344.5 164v260h147v-258q65 -4 126 -20.5t96 -32.5t96 -48l-74 -141q-57 31 -92 47t-95.5 30.5t-127.5 14.5q-166 0 -268.5 -104t-102.5 -287q0 -182 102.5 -285.5t268.5 -103.5q96 0 166 22.5t145 67.5l78 -139q-80 -47 -152 -72t-166 -31v-258 h-147v260q-217 22 -345 164t-128 375z" />
<glyph unicode="&#xa3;" d="M109 0v160h174v520h-170v131h170v219q0 126 35 225t97 161.5t144 95t178 32.5q235 0 418 -104l-61 -144q-88 46 -165 67t-169 21q-61 0 -112 -20t-92.5 -62.5t-65 -117.5t-23.5 -176v-197h481l-22 -131h-459v-520h625v-160h-983z" />
<glyph unicode="&#xa4;" horiz-adv-x="1343" d="M117 272l145 146q-102 136 -102 307q0 174 102 307l-145 146l102 102l146 -145q132 104 307 104t307 -104l147 145l101 -102l-146 -146q105 -134 105 -307t-105 -307l146 -146l-101 -102l-147 145q-133 -102 -307 -102q-171 0 -307 102l-146 -145zM307 725 q0 -152 107 -258.5t258 -106.5q152 0 259 106.5t107 258.5q0 151 -107 259t-259 108q-151 0 -258 -108t-107 -259z" />
<glyph unicode="&#xa5;" d="M88 1532l197 12l344 -766h8l344 766l197 -12l-265 -549h226l-35 -123h-246l-100 -205h305l-35 -123h-303v-532h-184v532h-316l-35 123h316l-98 205h-258l-35 123h235z" />
<glyph unicode="&#xa6;" horiz-adv-x="522" d="M188 -317v817h146v-817h-146zM188 834v817h146v-817h-146z" />
<glyph unicode="&#xa7;" horiz-adv-x="1165" d="M117 670q0 97 46 169.5t142 145.5q-112 97 -112 221q0 108 53 186t139 115t195 37q96 0 205 -48t180 -140l-95 -113q-55 78 -138 117t-152 39q-103 0 -165.5 -50t-62.5 -141q0 -52 38.5 -97t100 -79t135.5 -67t148.5 -70t136 -79t100 -102.5t38.5 -133.5 q0 -97 -46.5 -171t-142.5 -145q113 -101 113 -221q0 -161 -109.5 -249.5t-275.5 -88.5q-96 0 -205 49t-180 142l92 110q55 -77 138.5 -115t154.5 -38q102 0 163.5 48.5t61.5 139.5q0 53 -38.5 98t-100 79t-135.5 67t-148 70t-135.5 79t-100 102.5t-38.5 133.5zM276 680 q0 -40 28.5 -75.5t81.5 -67t108 -57.5t130 -62t126 -66q72 51 105.5 101.5t33.5 115.5q0 40 -28 75.5t-81.5 67t-108.5 57.5t-130.5 62t-126.5 66q-71 -51 -104.5 -102t-33.5 -115z" />
<glyph unicode="&#xa8;" horiz-adv-x="708" d="M35 1354q0 47 34.5 81.5t80.5 34.5q50 0 85 -33.5t35 -82.5q0 -48 -34.5 -83.5t-83.5 -35.5t-83 35.5t-34 83.5zM438 1354q0 47 34.5 81.5t80.5 34.5q50 0 85.5 -33.5t35.5 -82.5q0 -48 -35 -83.5t-84 -35.5t-83 35.5t-34 83.5z" />
<glyph unicode="&#xa9;" horiz-adv-x="1773" d="M109 766q0 158 61.5 302.5t165.5 248.5t248.5 165.5t302.5 61.5t302.5 -61.5t248.5 -165.5t165.5 -248.5t61.5 -302.5t-61.5 -302.5t-165.5 -248.5t-248.5 -165.5t-302.5 -61.5t-302.5 61.5t-248.5 165.5t-165.5 248.5t-61.5 302.5zM215 766q0 -182 90 -337t245 -245 t337 -90t337 90t245 245t90 337t-90 337t-245 245t-337 90t-337 -90t-245 -245t-90 -337zM455 768q0 208 123.5 326t318.5 118q72 0 153 -17t138 -46l-55 -117q-100 49 -236 49q-138 0 -225.5 -83t-87.5 -230q0 -154 82 -234.5t231 -80.5q120 0 246 63l57 -115 q-154 -79 -303 -79q-209 0 -325.5 115t-116.5 331z" />
<glyph unicode="&#xaa;" horiz-adv-x="727" d="M76 1090q0 23 4.5 44.5t21 50t44.5 48.5t79.5 34.5t120.5 14.5q77 0 168 -29q-3 181 -160 181q-75 0 -186 -52l-49 97q127 65 246 65q131 0 208.5 -72.5t77.5 -205.5v-373h-119l-10 78h-8q-43 -43 -98.5 -64.5t-106.5 -21.5q-105 0 -169 57t-64 148zM211 1094 q0 -46 34.5 -74.5t92.5 -28.5q27 0 54 7.5t56 25t47.5 54.5t18.5 87q-70 27 -156 27q-83 0 -115 -30t-32 -68z" />
<glyph unicode="&#xab;" horiz-adv-x="1179" d="M137 735v17l332 460l104 -77l-270 -390l270 -395l-104 -78zM586 735v17l332 460l104 -77l-270 -390l270 -395l-104 -78z" />
<glyph unicode="&#xac;" horiz-adv-x="1337" d="M135 842v145h1067v-588h-145v443h-922z" />
<glyph unicode="&#xad;" horiz-adv-x="714" d="M82 524v148h551v-148h-551z" />
<glyph unicode="&#xae;" horiz-adv-x="1773" d="M109 766q0 158 61.5 302.5t165.5 248.5t248.5 165.5t302.5 61.5t302.5 -61.5t248.5 -165.5t165.5 -248.5t61.5 -302.5t-61.5 -302.5t-165.5 -248.5t-248.5 -165.5t-302.5 -61.5t-302.5 61.5t-248.5 165.5t-165.5 248.5t-61.5 302.5zM215 766q0 -182 90 -337t245 -245 t337 -90t337 90t245 245t90 337t-90 337t-245 245t-337 90t-337 -90t-245 -245t-90 -337zM592 334v895h334q75 0 133 -26.5t91.5 -69.5t50 -90.5t16.5 -94.5q0 -51 -18 -100t-59 -92t-100 -64l195 -350l-143 -18l-179 342h-192v-332h-129zM721 780h203q85 0 125.5 50.5 t40.5 113.5t-41.5 111.5t-124.5 48.5h-203v-324z" />
<glyph unicode="&#xaf;" horiz-adv-x="583" d="M20 1288v125h543v-125h-543z" />
<glyph unicode="&#xb0;" horiz-adv-x="768" d="M90 1225q0 128 89 217.5t218 89.5q128 0 219 -90t91 -217q0 -130 -91 -220t-219 -90q-129 0 -218 90t-89 220zM199 1225q0 -85 57.5 -142t140.5 -57q84 0 141.5 57.5t57.5 141.5q0 83 -58 140.5t-141 57.5t-140.5 -57.5t-57.5 -140.5z" />
<glyph unicode="&#xb1;" horiz-adv-x="1337" d="M135 158v147h1067v-147h-1067zM135 756v147h461v324h145v-324h461v-147h-461v-324h-145v324h-461z" />
<glyph unicode="&#xb2;" horiz-adv-x="747" d="M82 594v84q64 50 125.5 105.5t136 134.5t120.5 162.5t46 152.5q0 77 -53 119.5t-133 42.5q-89 0 -189 -66l-47 119q124 86 262 86t228 -78.5t90 -206.5q0 -124 -98.5 -259t-247.5 -251l4 -6h333v-139h-577z" />
<glyph unicode="&#xb3;" horiz-adv-x="747" d="M88 678l62 125q105 -72 180 -72q76 0 123 40.5t47 113.5q0 67 -55.5 109t-137.5 42h-47v119h47q65 0 110.5 37t45.5 88q0 59 -42 86t-97 27q-87 0 -179 -68l-55 123q62 42 129 63t121 21q122 0 201.5 -61t79.5 -166q0 -38 -10.5 -73t-44.5 -71.5t-89 -54.5v-8 q88 -20 135 -86.5t47 -130.5q0 -128 -90.5 -207.5t-228.5 -79.5q-121 0 -252 84z" />
<glyph unicode="&#xb4;" horiz-adv-x="503" d="M-8 1198l201 307h219l-269 -307h-151z" />
<glyph unicode="&#xb5;" horiz-adv-x="1286" d="M166 -426v1489h178v-610q0 -72 17 -128t43 -89t62 -54.5t70 -29t70 -7.5q48 0 100.5 15.5t117 60t112.5 113.5v729h178v-1063h-160l-12 156l-8 2q-83 -88 -182.5 -129t-182.5 -41q-147 0 -219 86l-6 -2v-498h-178z" />
<glyph unicode="&#xb6;" horiz-adv-x="1429" d="M96 1028q0 136 67.5 252t183.5 184t253 68h635v-1958h-145v1798h-330v-1798h-146v954q-141 0 -260.5 67.5t-188.5 182.5t-69 250z" />
<glyph unicode="&#xb7;" horiz-adv-x="557" d="M143 776q0 56 40.5 95.5t97.5 39.5q54 0 93.5 -40t39.5 -95q0 -54 -39.5 -93.5t-93.5 -39.5q-57 0 -97.5 39.5t-40.5 93.5z" />
<glyph unicode="&#xb8;" horiz-adv-x="456" d="M49 -301l252 352l107 -59l-220 -379z" />
<glyph unicode="&#xb9;" horiz-adv-x="747" d="M178 1384l264 148h117v-938h-158v764l-172 -74z" />
<glyph unicode="&#xba;" horiz-adv-x="800" d="M76 1212q0 155 89 243.5t234 88.5q147 0 236.5 -88t89.5 -244q0 -152 -89.5 -239.5t-236.5 -87.5q-145 0 -234 87.5t-89 239.5zM213 1212q0 -97 51 -154t135 -57q85 0 138 57t53 154q0 98 -53 156.5t-138 58.5q-84 0 -135 -58t-51 -157z" />
<glyph unicode="&#xbb;" horiz-adv-x="1179" d="M158 350l270 395l-270 390l104 77l332 -460v-17l-332 -463zM606 350l271 395l-271 390l105 77l331 -460v-17l-331 -463z" />
<glyph unicode="&#xbc;" horiz-adv-x="1761" d="M129 1384l264 148h119v-938h-160v764l-172 -74zM367 0l925 1544l142 -12l-934 -1544zM948 246l492 700h92v-629h98v-124h-98v-193h-148v193h-430zM1161 324l2 -7h221v326l-6 2z" />
<glyph unicode="&#xbd;" horiz-adv-x="1761" d="M47 1384l264 148h117v-938h-158v764l-174 -74zM283 0l925 1544l144 -12l-934 -1544zM1126 0v84q64 50 125.5 105.5t136 134.5t120.5 162.5t46 152.5q0 77 -52 119.5t-132 42.5q-87 0 -190 -66l-47 119q66 46 136.5 66t125.5 20q137 0 227 -78.5t90 -206.5 q0 -124 -98 -258.5t-246 -251.5l2 -6h334v-139h-578z" />
<glyph unicode="&#xbe;" horiz-adv-x="1761" d="M84 678l61 125q105 -72 179 -72q76 0 124 40.5t48 113.5q0 67 -55.5 109t-137.5 42h-47v119h47q64 0 110 37t46 88q0 59 -42.5 86t-97.5 27q-86 0 -178 -68l-55 123q62 42 129 63t121 21q121 0 200.5 -61.5t79.5 -165.5q0 -38 -10.5 -72.5t-44 -71.5t-88.5 -55v-8 q87 -20 134.5 -86.5t47.5 -130.5q0 -128 -90.5 -207.5t-228.5 -79.5q-121 0 -252 84zM412 0l925 1544l142 -12l-932 -1544zM995 246l490 700h94v-629h96v-124h-96v-193h-147v193h-433zM1206 324l2 -7h224v326l-9 2z" />
<glyph unicode="&#xbf;" horiz-adv-x="1019" d="M90 -57q0 282 375 483l16 231h121l25 -297q-70 -35 -130 -75t-115 -90t-86.5 -109.5t-31.5 -120.5q0 -124 81 -188t198 -64q142 0 282 121l84 -125q-97 -78 -187 -112.5t-192 -34.5q-86 0 -162.5 22.5t-140 67t-100.5 119.5t-37 172zM410 985q0 55 39 94t94 39t94 -39 t39 -94q0 -57 -39 -97t-94 -40t-94 40t-39 97z" />
<glyph unicode="&#xc0;" horiz-adv-x="1470" d="M23 0l667 1532h90l668 -1532l-186 -12l-154 354h-743l-152 -354zM422 494h629l-312 733h-8zM526 1937h219l201 -307h-151z" />
<glyph unicode="&#xc1;" horiz-adv-x="1470" d="M23 0l667 1532h90l668 -1532l-186 -12l-154 354h-743l-152 -354zM422 494h629l-312 733h-8zM532 1630l201 307h219l-268 -307h-152z" />
<glyph unicode="&#xc2;" horiz-adv-x="1470" d="M23 0l667 1532h90l668 -1532l-186 -12l-154 354h-743l-152 -354zM422 494h629l-312 733h-8zM426 1628l213 307h195l213 -307h-134l-178 193l-176 -193h-133z" />
<glyph unicode="&#xc3;" horiz-adv-x="1470" d="M23 0l667 1532h90l668 -1532l-186 -12l-154 354h-743l-152 -354zM414 1753l61 113q62 -49 119 -49q30 0 71 19.5t93 39.5t110 20q98 0 193 -75l-55 -119q-75 51 -140 51q-45 0 -133.5 -39t-140.5 -39q-95 0 -178 78zM422 494h629l-312 733h-8z" />
<glyph unicode="&#xc4;" horiz-adv-x="1470" d="M23 0l667 1532h90l668 -1532l-186 -12l-154 354h-743l-152 -354zM416 1780q0 47 34 81.5t80 34.5q50 0 85.5 -33.5t35.5 -82.5q0 -48 -35 -83.5t-84 -35.5t-82.5 35.5t-33.5 83.5zM422 494h629l-312 733h-8zM819 1780q0 47 34.5 81.5t80.5 34.5q50 0 85.5 -33.5 t35.5 -82.5q0 -48 -35 -83.5t-84 -35.5t-83 35.5t-34 83.5z" />
<glyph unicode="&#xc5;" horiz-adv-x="1470" d="M23 0l667 1532h90l668 -1532l-186 -12l-154 354h-743l-152 -354zM422 494h629l-312 733h-8zM539 1792q0 82 56.5 139.5t139.5 57.5q82 0 139.5 -57.5t57.5 -139.5q0 -83 -57.5 -140t-139.5 -57q-83 0 -139.5 57t-56.5 140zM629 1792q0 -44 31 -75t75 -31q43 0 75 31 t32 75q0 43 -32 74.5t-75 31.5q-44 0 -75 -31.5t-31 -74.5z" />
<glyph unicode="&#xc6;" horiz-adv-x="2097" d="M23 2l667 1530h1268v-160h-776v-502h690v-151h-690v-559h776v-160h-961v342h-632l-152 -354zM422 494h575v878h-206z" />
<glyph unicode="&#xc7;" horiz-adv-x="1509" d="M131 766q0 163 47 303.5t136.5 246.5t230.5 167t317 61q143 0 267.5 -39t252.5 -114l-79 -152q-215 137 -441 137q-174 0 -299.5 -83t-186.5 -219t-61 -308q0 -127 35.5 -237t103 -193.5t172.5 -131.5t236 -48q226 0 441 137l79 -152q-116 -68 -224 -106t-230 -45 l-219 -377l-140 86l207 293q-156 14 -280 79.5t-203 169.5t-120.5 237.5t-41.5 287.5z" />
<glyph unicode="&#xc8;" horiz-adv-x="1355" d="M195 0v1532h1022v-160h-838v-502h751v-151h-751v-559h838v-160h-1022zM463 1935h219l201 -307h-152z" />
<glyph unicode="&#xc9;" horiz-adv-x="1355" d="M195 0v1532h1022v-160h-838v-502h751v-151h-751v-559h838v-160h-1022zM586 1628l200 307h220l-269 -307h-151z" />
<glyph unicode="&#xca;" horiz-adv-x="1355" d="M195 0v1532h1022v-160h-838v-502h751v-151h-751v-559h838v-160h-1022zM410 1628l213 307h194l213 -307h-133l-178 193l-176 -193h-133z" />
<glyph unicode="&#xcb;" horiz-adv-x="1355" d="M195 0v1532h1022v-160h-838v-502h751v-151h-751v-559h838v-160h-1022zM444 1784q0 47 34.5 82t80.5 35q50 0 85.5 -34t35.5 -83q0 -48 -35 -83.5t-84 -35.5t-83 35.5t-34 83.5zM848 1784q0 47 34.5 82t80.5 35q50 0 85 -34t35 -83q0 -48 -34.5 -83.5t-83.5 -35.5 t-83 35.5t-34 83.5z" />
<glyph unicode="&#xcc;" horiz-adv-x="573" d="M76 1935h219l201 -307h-152zM195 0v1532h184v-1532h-184z" />
<glyph unicode="&#xcd;" horiz-adv-x="573" d="M76 1628l200 307h220l-269 -307h-151zM195 0v1532h184v-1532h-184z" />
<glyph unicode="&#xce;" horiz-adv-x="573" d="M-25 1628l213 307h195l213 -307h-133l-178 193l-176 -193h-134zM195 0v1532h184v-1532h-184z" />
<glyph unicode="&#xcf;" horiz-adv-x="573" d="M-33 1788q0 47 34.5 82t80.5 35q50 0 85.5 -34t35.5 -83q0 -48 -35 -83.5t-84 -35.5t-83 35.5t-34 83.5zM195 0v1532h184v-1532h-184zM371 1788q0 47 34 82t80 35q50 0 85.5 -34t35.5 -83q0 -48 -35 -83.5t-84 -35.5t-82.5 35.5t-33.5 83.5z" />
<glyph unicode="&#xd0;" horiz-adv-x="1570" d="M41 688v158h156v686h512q175 0 314.5 -59.5t229.5 -163.5t137.5 -242.5t47.5 -300.5t-47.5 -300.5t-137.5 -242.5t-229.5 -163.5t-314.5 -59.5h-512v688h-156zM381 160h315q133 0 239.5 45.5t175.5 127t105.5 192t36.5 241.5q0 176 -62 311.5t-189.5 215t-305.5 79.5 h-315v-526h403v-158h-403v-528z" />
<glyph unicode="&#xd1;" horiz-adv-x="1611" d="M182 0v1532h74l956 -1157l9 2v1155h184v-1532h-82l-948 1143l-8 -2v-1141h-185zM477 1751l62 113q62 -49 118 -49q30 0 71 19.5t93.5 39.5t110.5 20q97 0 192 -75l-55 -119q-75 51 -139 51q-45 0 -134 -39t-141 -39q-95 0 -178 78z" />
<glyph unicode="&#xd2;" horiz-adv-x="1740" d="M131 766q0 164 49.5 305.5t141.5 247t233 165.5t315 60q175 0 316 -60t232.5 -165.5t140.5 -247t49 -305.5t-49 -305.5t-140.5 -247t-232.5 -165.5t-316 -60q-174 0 -315 60t-233 165.5t-141.5 247t-49.5 305.5zM317 766q0 -126 36.5 -236.5t105 -194.5t174.5 -132.5 t237 -48.5t237 48.5t174.5 132.5t105 194.5t36.5 236.5t-36.5 236.5t-105 194.5t-174.5 132.5t-237 48.5t-237 -48.5t-174.5 -132.5t-105 -194.5t-36.5 -236.5zM631 1935h219l201 -307h-152z" />
<glyph unicode="&#xd3;" horiz-adv-x="1740" d="M131 766q0 164 49.5 305.5t141.5 247t233 165.5t315 60q175 0 316 -60t232.5 -165.5t140.5 -247t49 -305.5t-49 -305.5t-140.5 -247t-232.5 -165.5t-316 -60q-174 0 -315 60t-233 165.5t-141.5 247t-49.5 305.5zM317 766q0 -126 36.5 -236.5t105 -194.5t174.5 -132.5 t237 -48.5t237 48.5t174.5 132.5t105 194.5t36.5 236.5t-36.5 236.5t-105 194.5t-174.5 132.5t-237 48.5t-237 -48.5t-174.5 -132.5t-105 -194.5t-36.5 -236.5zM713 1628l200 307h220l-269 -307h-151z" />
<glyph unicode="&#xd4;" horiz-adv-x="1740" d="M131 766q0 164 49.5 305.5t141.5 247t233 165.5t315 60q175 0 316 -60t232.5 -165.5t140.5 -247t49 -305.5t-49 -305.5t-140.5 -247t-232.5 -165.5t-316 -60q-174 0 -315 60t-233 165.5t-141.5 247t-49.5 305.5zM317 766q0 -126 36.5 -236.5t105 -194.5t174.5 -132.5 t237 -48.5t237 48.5t174.5 132.5t105 194.5t36.5 236.5t-36.5 236.5t-105 194.5t-174.5 132.5t-237 48.5t-237 -48.5t-174.5 -132.5t-105 -194.5t-36.5 -236.5zM553 1628l213 307h195l213 -307h-134l-178 193l-176 -193h-133z" />
<glyph unicode="&#xd5;" horiz-adv-x="1740" d="M131 766q0 164 49.5 305.5t141.5 247t233 165.5t315 60q175 0 316 -60t232.5 -165.5t140.5 -247t49 -305.5t-49 -305.5t-140.5 -247t-232.5 -165.5t-316 -60q-174 0 -315 60t-233 165.5t-141.5 247t-49.5 305.5zM317 766q0 -126 36.5 -236.5t105 -194.5t174.5 -132.5 t237 -48.5t237 48.5t174.5 132.5t105 194.5t36.5 236.5t-36.5 236.5t-105 194.5t-174.5 132.5t-237 48.5t-237 -48.5t-174.5 -132.5t-105 -194.5t-36.5 -236.5zM557 1755l61 113q62 -49 119 -49q30 0 71 19.5t93.5 39.5t110.5 20q97 0 192 -75l-55 -119q-75 51 -139 51 q-45 0 -134 -39t-141 -39q-95 0 -178 78z" />
<glyph unicode="&#xd6;" horiz-adv-x="1740" d="M131 766q0 164 49.5 305.5t141.5 247t233 165.5t315 60q175 0 316 -60t232.5 -165.5t140.5 -247t49 -305.5t-49 -305.5t-140.5 -247t-232.5 -165.5t-316 -60q-174 0 -315 60t-233 165.5t-141.5 247t-49.5 305.5zM317 766q0 -126 36.5 -236.5t105 -194.5t174.5 -132.5 t237 -48.5t237 48.5t174.5 132.5t105 194.5t36.5 236.5t-36.5 236.5t-105 194.5t-174.5 132.5t-237 48.5t-237 -48.5t-174.5 -132.5t-105 -194.5t-36.5 -236.5zM551 1784q0 47 34.5 82t80.5 35q50 0 85 -34t35 -83q0 -48 -34.5 -83.5t-83.5 -35.5t-83 35.5t-34 83.5z M954 1784q0 47 34.5 82t80.5 35q50 0 85.5 -34t35.5 -83q0 -48 -35 -83.5t-84 -35.5t-83 35.5t-34 83.5z" />
<glyph unicode="&#xd7;" horiz-adv-x="1337" d="M197 322l368 370l-368 369l102 104l369 -370l370 370l103 -104l-369 -369l369 -370l-103 -103l-370 369l-369 -369z" />
<glyph unicode="&#xd8;" horiz-adv-x="1740" d="M131 766q0 164 49.5 305.5t141.5 247t233 165.5t315 60q279 0 467 -151l131 151l84 -84l-131 -147q91 -104 139 -245t48 -302q0 -164 -49 -305.5t-140.5 -247t-232.5 -165.5t-316 -60q-280 0 -473 153l-129 -149l-84 82l129 149q-182 213 -182 543zM317 766 q0 -242 125 -401l777 899q-139 120 -349 120q-131 0 -237 -49t-174.5 -133.5t-105 -196t-36.5 -239.5zM516 270q142 -123 354 -123q131 0 237 49t174.5 134t105 196.5t36.5 239.5q0 245 -129 408z" />
<glyph unicode="&#xd9;" horiz-adv-x="1589" d="M172 659v873h184v-873q0 -229 115 -371.5t324 -142.5t323.5 142.5t114.5 371.5v873h184v-873q0 -147 -40 -269.5t-116.5 -212.5t-195.5 -140.5t-270 -50.5q-200 0 -342.5 88t-211.5 238t-69 347zM516 1935h219l201 -307h-152z" />
<glyph unicode="&#xda;" horiz-adv-x="1589" d="M172 659v873h184v-873q0 -229 115 -371.5t324 -142.5t323.5 142.5t114.5 371.5v873h184v-873q0 -147 -40 -269.5t-116.5 -212.5t-195.5 -140.5t-270 -50.5q-200 0 -342.5 88t-211.5 238t-69 347zM631 1628l200 307h220l-269 -307h-151z" />
<glyph unicode="&#xdb;" horiz-adv-x="1589" d="M172 659v873h184v-873q0 -229 115 -371.5t324 -142.5t323.5 142.5t114.5 371.5v873h184v-873q0 -147 -40 -269.5t-116.5 -212.5t-195.5 -140.5t-270 -50.5q-200 0 -342.5 88t-211.5 238t-69 347zM477 1628l213 307h195l213 -307h-133l-179 193l-176 -193h-133z" />
<glyph unicode="&#xdc;" horiz-adv-x="1589" d="M172 659v873h184v-873q0 -229 115 -371.5t324 -142.5t323.5 142.5t114.5 371.5v873h184v-873q0 -147 -40 -269.5t-116.5 -212.5t-195.5 -140.5t-270 -50.5q-200 0 -342.5 88t-211.5 238t-69 347zM475 1784q0 47 34.5 82t80.5 35q50 0 85.5 -34t35.5 -83q0 -48 -35 -83.5 t-84 -35.5t-83 35.5t-34 83.5zM879 1784q0 47 34 82t80 35q50 0 85.5 -34t35.5 -83q0 -48 -35 -83.5t-84 -35.5t-82.5 35.5t-33.5 83.5z" />
<glyph unicode="&#xdd;" horiz-adv-x="1351" d="M23 1532l210 12l439 -794h8l436 794l213 -12l-561 -940v-592h-184v588zM506 1628l201 307h219l-269 -307h-151z" />
<glyph unicode="&#xde;" horiz-adv-x="1339" d="M195 0v1532h184v-209h309q108 0 208.5 -40t177.5 -110.5t123 -175t46 -225.5q0 -162 -79 -289.5t-204.5 -194.5t-271.5 -67h-309v-221h-184zM379 385h291q159 0 274 107.5t115 279.5t-115 279.5t-274 107.5h-291v-774z" />
<glyph unicode="&#xdf;" horiz-adv-x="1357" d="M166 0v1174q0 210 129 333t340 123q112 0 203 -32t150.5 -88t91.5 -130.5t32 -160.5q0 -113 -46.5 -201t-133.5 -137l2 -9q129 -40 212 -156.5t83 -262.5q0 -187 -134 -320t-325 -133h-238v152h187q135 0 230 86t95 227q0 135 -93.5 223t-225.5 88h-193v142h183 q88 0 153.5 81t65.5 197q0 124 -83 200.5t-216 76.5q-137 0 -214 -81.5t-77 -220.5v-1171h-178z" />
<glyph unicode="&#xe0;" horiz-adv-x="1230" d="M111 326q0 38 7.5 74t35.5 82.5t73.5 80.5t131.5 58t200 24q66 0 153.5 -14t159.5 -41q0 173 -79.5 255.5t-219.5 82.5q-86 0 -157.5 -21.5t-171.5 -66.5l-64 129q217 106 406 106q213 0 339 -120.5t126 -336.5v-618h-158l-12 166l-9 2q-48 -66 -118 -108.5t-131 -57 t-121 -14.5q-177 0 -284 94t-107 244zM295 334q0 -91 68.5 -150t177.5 -59q38 0 78.5 9t86.5 33.5t82 62t60 101.5t24 144q-141 55 -294 55q-71 0 -125 -14t-83 -34.5t-47 -48.5t-23 -51t-5 -48zM346 1505h219l201 -307h-152z" />
<glyph unicode="&#xe1;" horiz-adv-x="1230" d="M111 326q0 38 7.5 74t35.5 82.5t73.5 80.5t131.5 58t200 24q66 0 153.5 -14t159.5 -41q0 173 -79.5 255.5t-219.5 82.5q-86 0 -157.5 -21.5t-171.5 -66.5l-64 129q217 106 406 106q213 0 339 -120.5t126 -336.5v-618h-158l-12 166l-9 2q-48 -66 -118 -108.5t-131 -57 t-121 -14.5q-177 0 -284 94t-107 244zM295 334q0 -91 68.5 -150t177.5 -59q38 0 78.5 9t86.5 33.5t82 62t60 101.5t24 144q-141 55 -294 55q-71 0 -125 -14t-83 -34.5t-47 -48.5t-23 -51t-5 -48zM436 1198l201 307h219l-268 -307h-152z" />
<glyph unicode="&#xe2;" horiz-adv-x="1230" d="M111 326q0 38 7.5 74t35.5 82.5t73.5 80.5t131.5 58t200 24q66 0 153.5 -14t159.5 -41q0 173 -79.5 255.5t-219.5 82.5q-86 0 -157.5 -21.5t-171.5 -66.5l-64 129q217 106 406 106q213 0 339 -120.5t126 -336.5v-618h-158l-12 166l-9 2q-48 -66 -118 -108.5t-131 -57 t-121 -14.5q-177 0 -284 94t-107 244zM285 1198l213 307h194l213 -307h-133l-178 193l-176 -193h-133zM295 334q0 -91 68.5 -150t177.5 -59q38 0 78.5 9t86.5 33.5t82 62t60 101.5t24 144q-141 55 -294 55q-71 0 -125 -14t-83 -34.5t-47 -48.5t-23 -51t-5 -48z" />
<glyph unicode="&#xe3;" horiz-adv-x="1230" d="M111 326q0 38 7.5 74t35.5 82.5t73.5 80.5t131.5 58t200 24q66 0 153.5 -14t159.5 -41q0 173 -79.5 255.5t-219.5 82.5q-86 0 -157.5 -21.5t-171.5 -66.5l-64 129q217 106 406 106q213 0 339 -120.5t126 -336.5v-618h-158l-12 166l-9 2q-48 -66 -118 -108.5t-131 -57 t-121 -14.5q-177 0 -284 94t-107 244zM285 1294l61 113q62 -49 119 -49q30 0 71 20t93 40t110 20q96 0 193 -76l-55 -119q-75 51 -140 51q-45 0 -133.5 -38.5t-140.5 -38.5q-96 0 -178 77zM295 334q0 -91 68.5 -150t177.5 -59q38 0 78.5 9t86.5 33.5t82 62t60 101.5t24 144 q-141 55 -294 55q-71 0 -125 -14t-83 -34.5t-47 -48.5t-23 -51t-5 -48z" />
<glyph unicode="&#xe4;" horiz-adv-x="1230" d="M111 326q0 38 7.5 74t35.5 82.5t73.5 80.5t131.5 58t200 24q66 0 153.5 -14t159.5 -41q0 173 -79.5 255.5t-219.5 82.5q-86 0 -157.5 -21.5t-171.5 -66.5l-64 129q217 106 406 106q213 0 339 -120.5t126 -336.5v-618h-158l-12 166l-9 2q-48 -66 -118 -108.5t-131 -57 t-121 -14.5q-177 0 -284 94t-107 244zM270 1354q0 47 34.5 81.5t80.5 34.5q50 0 85.5 -33.5t35.5 -82.5q0 -48 -35 -83.5t-84 -35.5t-83 35.5t-34 83.5zM295 334q0 -91 68.5 -150t177.5 -59q38 0 78.5 9t86.5 33.5t82 62t60 101.5t24 144q-141 55 -294 55q-71 0 -125 -14 t-83 -34.5t-47 -48.5t-23 -51t-5 -48zM674 1354q0 47 34 81.5t80 34.5q50 0 85.5 -33.5t35.5 -82.5q0 -48 -34.5 -83.5t-83.5 -35.5t-83 35.5t-34 83.5z" />
<glyph unicode="&#xe5;" horiz-adv-x="1230" d="M111 326q0 38 7.5 74t35.5 82.5t73.5 80.5t131.5 58t200 24q66 0 153.5 -14t159.5 -41q0 173 -79.5 255.5t-219.5 82.5q-86 0 -157.5 -21.5t-171.5 -66.5l-64 129q217 106 406 106q213 0 339 -120.5t126 -336.5v-618h-158l-12 166l-9 2q-48 -66 -118 -108.5t-131 -57 t-121 -14.5q-177 0 -284 94t-107 244zM295 334q0 -91 68.5 -150t177.5 -59q38 0 78.5 9t86.5 33.5t82 62t60 101.5t24 144q-141 55 -294 55q-71 0 -125 -14t-83 -34.5t-47 -48.5t-23 -51t-5 -48zM387 1389q0 82 57 139t140 57q82 0 139 -57t57 -139q0 -83 -57 -140t-139 -57 q-83 0 -140 57t-57 140zM477 1389q0 -44 31.5 -75.5t75.5 -31.5q43 0 74.5 31.5t31.5 75.5q0 43 -31.5 74.5t-74.5 31.5q-44 0 -75.5 -31.5t-31.5 -74.5z" />
<glyph unicode="&#xe6;" horiz-adv-x="1972" d="M111 326q0 38 7.5 74t35.5 82.5t73.5 80.5t131.5 58t200 24q66 0 153.5 -14t159.5 -41q0 173 -79.5 255.5t-219.5 82.5q-86 0 -157.5 -21.5t-171.5 -66.5l-64 129q217 106 406 106q135 0 236 -54.5t155 -156.5q66 101 171.5 156t231.5 55q247 0 364.5 -144t117.5 -401 l-11 -53h-798q4 -161 104.5 -251.5t255.5 -90.5q193 0 352 86l68 -129q-95 -53 -194 -79.5t-226 -26.5q-161 0 -282.5 67.5t-186.5 192.5q-36 -73 -89 -125.5t-114 -80t-119.5 -40t-119.5 -12.5q-177 0 -284 94t-107 244zM295 334q0 -91 68.5 -150t177.5 -59q38 0 78.5 9 t86.5 33.5t82 62t60 101.5t24 144q-141 55 -294 55q-71 0 -125 -14t-83 -34.5t-47 -48.5t-23 -51t-5 -48zM1055 610h631q0 145 -82.5 233.5t-225.5 88.5q-138 0 -228 -95t-95 -227z" />
<glyph unicode="&#xe7;" horiz-adv-x="1150" d="M131 530q0 253 151 399t400 146q125 0 206.5 -25t180.5 -79l-74 -142q-58 32 -92.5 47.5t-95 30.5t-127.5 15q-166 0 -268.5 -104.5t-102.5 -287.5q0 -182 102.5 -285.5t268.5 -103.5q96 0 166 22.5t145 67.5l78 -139q-76 -46 -146.5 -70t-162.5 -30l-217 -379l-140 86 l205 293q-219 21 -348 162.5t-129 375.5z" />
<glyph unicode="&#xe8;" horiz-adv-x="1232" d="M131 530q0 250 144 397.5t364 147.5q247 0 365 -144t118 -401l-10 -53h-801q4 -161 104.5 -251.5t256.5 -90.5q196 0 352 86l68 -129q-184 -104 -418 -104q-246 0 -394.5 144.5t-148.5 397.5zM315 610h631q0 145 -82.5 233.5t-226.5 88.5q-138 0 -228.5 -95t-93.5 -227z M412 1505h219l200 -307h-151z" />
<glyph unicode="&#xe9;" horiz-adv-x="1232" d="M131 530q0 250 144 397.5t364 147.5q247 0 365 -144t118 -401l-10 -53h-801q4 -161 104.5 -251.5t256.5 -90.5q196 0 352 86l68 -129q-184 -104 -418 -104q-246 0 -394.5 144.5t-148.5 397.5zM315 610h631q0 145 -82.5 233.5t-226.5 88.5q-138 0 -228.5 -95t-93.5 -227z M483 1198l201 307h219l-268 -307h-152z" />
<glyph unicode="&#xea;" horiz-adv-x="1232" d="M131 530q0 250 144 397.5t364 147.5q247 0 365 -144t118 -401l-10 -53h-801q4 -161 104.5 -251.5t256.5 -90.5q196 0 352 86l68 -129q-184 -104 -418 -104q-246 0 -394.5 144.5t-148.5 397.5zM315 610h631q0 145 -82.5 233.5t-226.5 88.5q-138 0 -228.5 -95t-93.5 -227z M352 1198l213 307h195l213 -307h-133l-178 193l-177 -193h-133z" />
<glyph unicode="&#xeb;" horiz-adv-x="1232" d="M131 530q0 250 144 397.5t364 147.5q247 0 365 -144t118 -401l-10 -53h-801q4 -161 104.5 -251.5t256.5 -90.5q196 0 352 86l68 -129q-184 -104 -418 -104q-246 0 -394.5 144.5t-148.5 397.5zM305 1354q0 47 34.5 81.5t80.5 34.5q50 0 85.5 -33.5t35.5 -82.5 q0 -48 -35 -83.5t-84 -35.5t-83 35.5t-34 83.5zM315 610h631q0 145 -82.5 233.5t-226.5 88.5q-138 0 -228.5 -95t-93.5 -227zM709 1354q0 47 34 81.5t80 34.5q50 0 85.5 -33.5t35.5 -82.5q0 -48 -35 -83.5t-84 -35.5t-82.5 35.5t-33.5 83.5z" />
<glyph unicode="&#xec;" horiz-adv-x="575" d="M82 1505h219l201 -307h-152zM207 0v1063h176v-1063h-176z" />
<glyph unicode="&#xed;" horiz-adv-x="575" d="M111 1198l200 307h219l-268 -307h-151zM207 0v1063h176v-1063h-176z" />
<glyph unicode="&#xee;" horiz-adv-x="575" d="M-23 1198l213 307h195l213 -307h-133l-178 193l-176 -193h-134zM201 0v1063h176v-1063h-176z" />
<glyph unicode="&#xef;" horiz-adv-x="565" d="M-37 1354q0 47 34.5 81.5t80.5 34.5q50 0 85.5 -33.5t35.5 -82.5q0 -48 -35 -83.5t-84 -35.5t-83 35.5t-34 83.5zM197 0v1063h176v-1063h-176zM367 1354q0 47 34 81.5t80 34.5q50 0 85.5 -33.5t35.5 -82.5q0 -48 -35 -83.5t-84 -35.5t-82.5 35.5t-33.5 83.5z" />
<glyph unicode="&#xf0;" horiz-adv-x="1341" d="M131 530q0 245 141.5 386t372.5 141q185 0 295 -82l6 4q-73 152 -225 297l-227 -119l-82 88l215 111q-101 84 -203 151l86 123q130 -77 270 -198l226 116l92 -80l-228 -118q149 -157 240.5 -346.5t91.5 -401.5q0 -310 -143.5 -462t-401.5 -152q-236 0 -381 145t-145 397z M309 524q0 -180 97.5 -281.5t257.5 -101.5q169 0 266.5 107.5t97.5 292.5q0 147 -57 264q-121 100 -295 100q-164 0 -265.5 -102t-101.5 -279z" />
<glyph unicode="&#xf1;" horiz-adv-x="1302" d="M172 0v1063h160l12 -154l8 -2q85 88 183.5 128t183.5 40q46 0 89.5 -8.5t90.5 -27.5t85.5 -55t69.5 -86t48.5 -125t17.5 -167v-606h-178v612q0 71 -16.5 126.5t-42.5 88.5t-61.5 54.5t-69.5 29t-70 7.5q-79 0 -171 -44t-161 -145v-729h-178zM350 1294l62 113 q62 -49 118 -49q30 0 71 20t93.5 40t110.5 20q95 0 192 -76l-55 -119q-75 51 -139 51q-45 0 -134 -38.5t-141 -38.5q-96 0 -178 77z" />
<glyph unicode="&#xf2;" horiz-adv-x="1333" d="M131 530q0 254 147.5 399.5t389.5 145.5q240 0 387 -145.5t147 -399.5q0 -251 -147 -396.5t-387 -145.5q-241 0 -389 145.5t-148 396.5zM309 530q0 -181 98.5 -285t260.5 -104q160 0 258 104t98 285q0 182 -97.5 287t-258.5 105q-162 0 -260.5 -105t-98.5 -287zM457 1505 h219l201 -307h-152z" />
<glyph unicode="&#xf3;" horiz-adv-x="1333" d="M131 530q0 254 147.5 399.5t389.5 145.5q240 0 387 -145.5t147 -399.5q0 -251 -147 -396.5t-387 -145.5q-241 0 -389 145.5t-148 396.5zM309 530q0 -181 98.5 -285t260.5 -104q160 0 258 104t98 285q0 182 -97.5 287t-258.5 105q-162 0 -260.5 -105t-98.5 -287zM528 1198 l201 307h219l-268 -307h-152z" />
<glyph unicode="&#xf4;" horiz-adv-x="1333" d="M131 530q0 254 147.5 399.5t389.5 145.5q240 0 387 -145.5t147 -399.5q0 -251 -147 -396.5t-387 -145.5q-241 0 -389 145.5t-148 396.5zM309 530q0 -181 98.5 -285t260.5 -104q160 0 258 104t98 285q0 182 -97.5 287t-258.5 105q-162 0 -260.5 -105t-98.5 -287zM356 1198 l213 307h195l213 -307h-133l-178 193l-177 -193h-133z" />
<glyph unicode="&#xf5;" horiz-adv-x="1333" d="M131 530q0 254 147.5 399.5t389.5 145.5q240 0 387 -145.5t147 -399.5q0 -251 -147 -396.5t-387 -145.5q-241 0 -389 145.5t-148 396.5zM309 530q0 -181 98.5 -285t260.5 -104q160 0 258 104t98 285q0 182 -97.5 287t-258.5 105q-162 0 -260.5 -105t-98.5 -287zM342 1294 l61 113q62 -49 119 -49q30 0 71 20t93.5 40t110.5 20q95 0 192 -76l-55 -119q-75 51 -139 51q-45 0 -134 -38.5t-141 -38.5q-96 0 -178 77z" />
<glyph unicode="&#xf6;" horiz-adv-x="1333" d="M131 530q0 254 147.5 399.5t389.5 145.5q240 0 387 -145.5t147 -399.5q0 -251 -147 -396.5t-387 -145.5q-241 0 -389 145.5t-148 396.5zM309 530q0 -181 98.5 -285t260.5 -104q160 0 258 104t98 285q0 182 -97.5 287t-258.5 105q-162 0 -260.5 -105t-98.5 -287zM348 1354 q0 47 34.5 81.5t80.5 34.5q50 0 85.5 -33.5t35.5 -82.5q0 -48 -35 -83.5t-84 -35.5t-83 35.5t-34 83.5zM752 1354q0 47 34 81.5t80 34.5q50 0 85.5 -33.5t35.5 -82.5q0 -48 -35 -83.5t-84 -35.5t-82.5 35.5t-33.5 83.5z" />
<glyph unicode="&#xf7;" horiz-adv-x="1337" d="M135 618v148h1067v-148h-1067zM522 264q0 60 43 103t103 43t102.5 -43t42.5 -103q0 -61 -42.5 -104t-102.5 -43t-103 43t-43 104zM522 1120q0 60 43 104t103 44t102.5 -44t42.5 -104t-42.5 -101.5t-102.5 -41.5t-103 41.5t-43 101.5z" />
<glyph unicode="&#xf8;" horiz-adv-x="1327" d="M129 530q0 254 147.5 399.5t387.5 145.5q193 0 333 -100l93 96l79 -80l-88 -96q117 -139 117 -365q0 -251 -147 -396.5t-387 -145.5q-202 0 -338 102l-90 -98l-82 80l90 96q-115 140 -115 362zM305 530q0 -138 70 -231l506 557q-91 66 -217 66q-161 0 -260 -105t-99 -287 zM442 209q92 -68 222 -68q162 0 260 104t98 285q0 140 -72 234z" />
<glyph unicode="&#xf9;" horiz-adv-x="1302" d="M176 459v604h176v-610q0 -72 17 -128t43 -89t62 -54.5t70 -29t70 -7.5q48 0 101 15.5t118 60t113 113.5v729h176v-1063h-157l-13 156l-8 2q-85 -88 -183.5 -129t-182.5 -41q-56 0 -108 11.5t-107 44t-95.5 83.5t-66 136.5t-25.5 195.5zM401 1505h220l200 -307h-151z" />
<glyph unicode="&#xfa;" horiz-adv-x="1302" d="M176 459v604h176v-610q0 -72 17 -128t43 -89t62 -54.5t70 -29t70 -7.5q48 0 101 15.5t118 60t113 113.5v729h176v-1063h-157l-13 156l-8 2q-85 -88 -183.5 -129t-182.5 -41q-56 0 -108 11.5t-107 44t-95.5 83.5t-66 136.5t-25.5 195.5zM504 1198l201 307h219l-269 -307 h-151z" />
<glyph unicode="&#xfb;" horiz-adv-x="1302" d="M176 459v604h176v-610q0 -72 17 -128t43 -89t62 -54.5t70 -29t70 -7.5q48 0 101 15.5t118 60t113 113.5v729h176v-1063h-157l-13 156l-8 2q-85 -88 -183.5 -129t-182.5 -41q-56 0 -108 11.5t-107 44t-95.5 83.5t-66 136.5t-25.5 195.5zM338 1198l213 307h194l213 -307 h-133l-178 193l-176 -193h-133z" />
<glyph unicode="&#xfc;" horiz-adv-x="1302" d="M176 459v604h176v-610q0 -72 17 -128t43 -89t62 -54.5t70 -29t70 -7.5q48 0 101 15.5t118 60t113 113.5v729h176v-1063h-157l-13 156l-8 2q-85 -88 -183.5 -129t-182.5 -41q-56 0 -108 11.5t-107 44t-95.5 83.5t-66 136.5t-25.5 195.5zM336 1354q0 47 34.5 81.5 t80.5 34.5q50 0 85 -33.5t35 -82.5q0 -48 -34.5 -83.5t-83.5 -35.5t-83 35.5t-34 83.5zM739 1354q0 47 34.5 81.5t80.5 34.5q50 0 85.5 -33.5t35.5 -82.5q0 -48 -35 -83.5t-84 -35.5t-83 35.5t-34 83.5z" />
<glyph unicode="&#xfd;" horiz-adv-x="1093" d="M14 1063l191 12l338 -796h8l340 796l188 -12l-682 -1501l-176 12l236 508zM403 1198l201 307h219l-268 -307h-152z" />
<glyph unicode="&#xfe;" horiz-adv-x="1220" d="M172 -426v2056h178v-667l8 -5q133 117 283 117q212 0 329 -144t117 -401t-117 -399.5t-329 -142.5q-150 0 -283 114l-8 -2v-526h-178zM350 279q135 -132 279 -132q136 0 209 99.5t73 283.5t-73 284.5t-209 100.5q-147 0 -279 -135v-501z" />
<glyph unicode="&#xff;" horiz-adv-x="1081" d="M8 1063l191 12l338 -796h8l340 796l188 -12l-682 -1501l-176 12l236 508zM231 1354q0 47 34.5 81.5t80.5 34.5q50 0 85.5 -33.5t35.5 -82.5q0 -48 -35 -83.5t-84 -35.5t-83 35.5t-34 83.5zM635 1354q0 47 34.5 81.5t80.5 34.5q50 0 85 -33.5t35 -82.5q0 -48 -34.5 -83.5 t-83.5 -35.5t-83 35.5t-34 83.5z" />
<glyph unicode="&#x152;" horiz-adv-x="2263" d="M131 766q0 166 48.5 306t143 246t245.5 166t345 60q97 0 199 -12h1012v-160h-832v-502h746v-151h-746v-559h832v-160h-1012q-102 -12 -199 -12q-194 0 -345 60t-245.5 166t-143 246t-48.5 306zM317 766q0 -103 22 -194t69 -169t116 -134t168.5 -87.5t220.5 -31.5 q90 0 195 18v1194q-100 20 -195 20q-121 0 -220.5 -31.5t-168.5 -87.5t-116 -134t-69 -169t-22 -194z" />
<glyph unicode="&#x153;" horiz-adv-x="2123" d="M131 530q0 254 147.5 399.5t389.5 145.5q149 0 264 -61.5t180 -175.5q62 113 173.5 175t246.5 62q126 0 219 -38.5t150 -111.5t84.5 -171t27.5 -224l-8 -53h-801q4 -161 104.5 -251.5t256.5 -90.5q196 0 352 86l68 -129q-188 -106 -420 -106q-152 0 -269.5 62t-183.5 177 q-63 -115 -178.5 -177t-265.5 -62q-241 0 -389 146t-148 398zM309 530q0 -181 98.5 -286t260.5 -105q160 0 258 105t98 286q0 182 -97.5 287t-258.5 105q-162 0 -260.5 -105t-98.5 -287zM1206 610h631q0 145 -82 233.5t-225 88.5q-138 0 -228.5 -95t-95.5 -227z" />
<glyph unicode="&#x178;" horiz-adv-x="1351" d="M23 1532l210 12l439 -794h8l436 794l213 -12l-561 -940v-592h-184v588zM356 1788q0 47 34.5 82t80.5 35q50 0 85.5 -34t35.5 -83q0 -48 -35 -83.5t-84 -35.5t-83 35.5t-34 83.5zM760 1788q0 47 34 82t80 35q50 0 85.5 -34t35.5 -83q0 -48 -34.5 -83.5t-83.5 -35.5 t-83 35.5t-34 83.5z" />
<glyph unicode="&#x2c6;" horiz-adv-x="661" d="M20 1198l213 307h195l213 -307h-133l-178 193l-176 -193h-134z" />
<glyph unicode="&#x2dc;" horiz-adv-x="688" d="M20 1294l62 113q62 -49 119 -49q30 0 71 20t93 40t110 20q96 0 193 -76l-56 -119q-75 51 -139 51q-45 0 -133.5 -38.5t-140.5 -38.5q-97 0 -179 77z" />
<glyph unicode="&#x2000;" horiz-adv-x="994" />
<glyph unicode="&#x2001;" horiz-adv-x="1989" />
<glyph unicode="&#x2002;" horiz-adv-x="994" />
<glyph unicode="&#x2003;" horiz-adv-x="1989" />
<glyph unicode="&#x2004;" horiz-adv-x="663" />
<glyph unicode="&#x2005;" horiz-adv-x="497" />
<glyph unicode="&#x2006;" horiz-adv-x="331" />
<glyph unicode="&#x2007;" horiz-adv-x="331" />
<glyph unicode="&#x2008;" horiz-adv-x="248" />
<glyph unicode="&#x2009;" horiz-adv-x="397" />
<glyph unicode="&#x200a;" horiz-adv-x="110" />
<glyph unicode="&#x2010;" horiz-adv-x="714" d="M82 524v148h551v-148h-551z" />
<glyph unicode="&#x2011;" horiz-adv-x="714" d="M82 524v148h551v-148h-551z" />
<glyph unicode="&#x2012;" horiz-adv-x="714" d="M82 524v148h551v-148h-551z" />
<glyph unicode="&#x2013;" horiz-adv-x="1024" d="M0 524v148h1024v-148h-1024z" />
<glyph unicode="&#x2014;" horiz-adv-x="1568" d="M0 524v148h1569v-148h-1569z" />
<glyph unicode="&#x2018;" horiz-adv-x="491" d="M117 1100q0 81 57 220.5t111 223.5l98 -35l-119 -274q55 0 90 -40.5t35 -94.5q0 -57 -39 -98t-96 -41t-97 41t-40 98z" />
<glyph unicode="&#x2019;" horiz-adv-x="491" d="M100 1405q0 57 40 98t98 41q57 0 97 -41t40 -98q0 -80 -57.5 -220.5t-110.5 -223.5l-101 36l119 273q-55 0 -90 40.5t-35 94.5z" />
<glyph unicode="&#x201a;" horiz-adv-x="567" d="M127 125q0 58 39.5 98.5t97.5 40.5q57 0 97 -41t40 -98q0 -79 -57 -218.5t-111 -225.5l-100 36l119 273q-55 0 -90 41.5t-35 93.5z" />
<glyph unicode="&#x201c;" horiz-adv-x="915" d="M117 1100q0 81 57 220.5t111 223.5l98 -35l-119 -274q55 0 90 -40.5t35 -94.5q0 -57 -39 -98t-96 -41t-97 41t-40 98zM541 1100q0 81 57 220.5t111 223.5l100 -35l-119 -274q55 0 90 -40.5t35 -94.5q0 -58 -39.5 -98.5t-97.5 -40.5q-57 0 -97 41t-40 98z" />
<glyph unicode="&#x201d;" horiz-adv-x="915" d="M100 1405q0 57 40 98t98 41q57 0 97 -41t40 -98q0 -80 -57.5 -220.5t-110.5 -223.5l-101 36l119 273q-55 0 -90 40.5t-35 94.5zM526 1405q0 57 39.5 98t96.5 41t97 -41t40 -98q0 -80 -57.5 -220.5t-110.5 -223.5l-99 36l119 273q-55 0 -90 40.5t-35 94.5z" />
<glyph unicode="&#x201e;" horiz-adv-x="991" d="M127 125q0 58 39.5 98.5t97.5 40.5q57 0 97 -41t40 -98q0 -79 -57 -218.5t-111 -225.5l-100 36l119 273q-55 0 -90 41.5t-35 93.5zM553 125q0 57 39 98t96 41t97 -41t40 -98q0 -79 -57 -218.5t-111 -225.5l-98 36l119 273q-55 0 -90 41.5t-35 93.5z" />
<glyph unicode="&#x2022;" horiz-adv-x="765" d="M143 766q0 100 70 171t170 71t170 -71t70 -171t-70 -169t-170 -69t-170 69t-70 169z" />
<glyph unicode="&#x2026;" horiz-adv-x="1847" d="M166 125q0 57 40 98t97 41t97 -41t40 -98t-40 -97t-97 -40t-97 40t-40 97zM786 125q0 57 40.5 98t97.5 41t97 -41t40 -98t-40 -97t-97 -40t-97.5 40t-40.5 97zM1407 125q0 57 40 98t97 41t97 -41t40 -98t-40 -97t-97 -40t-97 40t-40 97z" />
<glyph unicode="&#x202f;" horiz-adv-x="397" />
<glyph unicode="&#x2039;" horiz-adv-x="731" d="M137 735v17l332 460l104 -77l-270 -390l270 -395l-104 -78z" />
<glyph unicode="&#x203a;" horiz-adv-x="731" d="M158 350l270 395l-270 390l104 77l332 -460v-17l-332 -463z" />
<glyph unicode="&#x205f;" horiz-adv-x="497" />
<glyph unicode="&#x20ac;" d="M94 532l35 123h88q-4 70 -4 109q0 30 4 96h-123l35 123h98q39 280 173.5 420.5t347.5 140.5q215 0 397 -110l-74 -146q-143 96 -323 96q-134 0 -222 -99.5t-118 -301.5h559l-35 -123h-535q-2 -33 -2 -96q0 -39 4 -109h492l-35 -123h-444q35 -191 125 -288t229 -97 q177 0 324 113l79 -139q-186 -133 -403 -133t-353.5 139t-179.5 405h-139z" />
<glyph unicode="&#x2122;" horiz-adv-x="1589" d="M102 1436v96h617v-96h-254v-584h-111v584h-252zM858 852v680h82l256 -391l256 391h82v-680h-111v446l-8 2l-213 -325h-12l-213 325l-8 -2v-446h-111z" />
<glyph unicode="&#x25fc;" horiz-adv-x="1075" d="M0 0v1075h1075v-1075h-1075z" />
</font>
</defs>
</svg>
